<svg aria-hidden="true" style="position: absolute; width: 0; height: 0; overflow: hidden;" version="1.1" xmlns="http://www.w3.org/2000/svg" xmlns:xlink="http://www.w3.org/1999/xlink">
<defs>
<symbol id="icon-in" viewBox="0 0 31 32">
<path d="M0 2.643c0-1.234 1.025-2.233 2.29-2.233h26.6c1.265 0 2.29 1 2.29 2.233v26.713c0 1.233-1.025 2.233-2.29 2.233h-26.6c-1.265 0-2.29-1-2.29-2.233v-26.713zM9.633 26.511v-14.079h-4.679v14.079h4.679zM7.294 10.509c1.631 0 2.646-1.080 2.646-2.432-0.029-1.382-1.013-2.432-2.615-2.432s-2.648 1.052-2.648 2.432c0 1.352 1.015 2.432 2.586 2.432h0.031zM16.858 26.511v-7.863c0-0.421 0.031-0.842 0.156-1.142 0.337-0.84 1.107-1.711 2.401-1.711 1.693 0 2.37 1.29 2.37 3.184v7.532h4.679v-8.075c0-4.326-2.307-6.337-5.386-6.337-2.483 0-3.595 1.364-4.219 2.325v0.049h-0.031c0.010-0.016 0.021-0.033 0.031-0.049v-1.992h-4.677c0.059 1.321 0 14.079 0 14.079h4.677z"></path>
</symbol>
<symbol id="icon-inst" viewBox="0 0 31 32">
<path d="M20.513 16c0 0.974-0.289 1.925-0.83 2.735s-1.31 1.441-2.209 1.813c-0.9 0.373-1.889 0.47-2.844 0.28s-1.832-0.659-2.521-1.347c-0.689-0.689-1.157-1.566-1.347-2.521s-0.092-1.945 0.28-2.844 1.004-1.668 1.813-2.209c0.81-0.541 1.761-0.83 2.735-0.83 1.305 0.001 2.557 0.521 3.479 1.444s1.442 2.174 1.444 3.479zM30.974 9.231v13.538c-0.003 2.284-0.911 4.474-2.526 6.089s-3.805 2.524-6.089 2.526h-13.538c-2.284-0.003-4.474-0.911-6.089-2.526s-2.524-3.805-2.526-6.089v-13.538c0.003-2.284 0.911-4.474 2.526-6.089s3.805-2.524 6.089-2.526h13.538c2.284 0.003 4.474 0.911 6.089 2.526s2.524 3.805 2.526 6.089zM22.974 16c0-1.46-0.433-2.888-1.245-4.103s-1.965-2.161-3.314-2.72c-1.349-0.559-2.834-0.705-4.267-0.42s-2.748 0.988-3.781 2.021c-1.033 1.033-1.736 2.349-2.021 3.781s-0.139 2.917 0.42 4.267c0.559 1.349 1.505 2.503 2.72 3.314s2.642 1.245 4.103 1.245c1.958-0.002 3.835-0.781 5.219-2.165s2.163-3.261 2.165-5.219zM25.436 8c0-0.365-0.108-0.722-0.311-1.026s-0.491-0.54-0.829-0.68c-0.337-0.14-0.709-0.176-1.067-0.105s-0.687 0.247-0.945 0.505-0.434 0.587-0.505 0.945c-0.071 0.358-0.035 0.729 0.105 1.067s0.376 0.626 0.68 0.829 0.66 0.311 1.026 0.311c0.49 0 0.959-0.195 1.305-0.541s0.541-0.816 0.541-1.305z"></path>
</symbol>
<symbol id="icon-mess" viewBox="0 0 41 32">
<path d="M0.127 4.506c0.257-1.142 0.887-2.162 1.789-2.893s2.021-1.128 3.174-1.128h30.545c1.153-0 2.273 0.398 3.174 1.128s1.533 1.75 1.789 2.893l-20.236 12.565-20.236-12.565zM0 7.459v18.37l14.771-9.2-14.771-9.169zM17.21 18.146l-16.724 10.413c0.413 0.885 1.065 1.633 1.881 2.156s1.76 0.801 2.724 0.8h30.545c0.964 0 1.908-0.278 2.723-0.801s1.466-1.272 1.879-2.157l-16.724-10.413-3.151 1.957-3.154-1.955zM25.956 16.631l14.771 9.198v-18.37l-14.771 9.172z"></path>
</symbol>
</defs>
</svg>
